<?xml version="1.0" encoding="UTF-8"?>
<svg width="281px" height="313px" viewBox="0 0 281 313" version="1.1" xmlns="http://www.w3.org/2000/svg" xmlns:xlink="http://www.w3.org/1999/xlink">
    <title>Group 8</title>
    <g id="Page-1-Copy" stroke="none" stroke-width="1" fill="none" fill-rule="evenodd">
        <g id="Option-1-Copy-5" transform="translate(-1086.000000, -2081.000000)">
            <g id="Group-8" transform="translate(1086.000000, 2081.862212)">
                <polygon id="Path-2" fill="#F6F6F6" points="0 171.61959 174.525432 163.820918 81.0199429 311.347972 0 311.347972"></polygon>
                <path d="M187.347,171.310237 L238.779899,267.922796 C227.597655,283.042111 210.453355,294.582016 187.347,302.542511 C164.240645,310.503006 139.369234,313.43816 112.732767,311.347972 L187.347,171.310237 Z" id="Path-3" fill="#3BB8CE"></path>
                <path d="M199.382782,163.820918 L280.421691,166.344319 C279.937447,181.595479 277.479993,196.335198 273.049328,210.563475 C268.618664,224.791752 262.27086,238.328523 254.005919,251.173788 L199.382782,163.820918 Z" id="Path-4" fill="#F6F6F6"></path>
                <polygon id="Path" fill="#F6F6F6" points="0 0.800115004 0 143.085235 174.525432 150.409387 81.1333667 0.800115004"></polygon>
                <path d="M198.246472,150.409387 L254.154167,61.7467561 C262.485255,74.6783846 268.829029,88.1890818 273.18549,102.278848 C277.54195,116.368614 279.954017,131.176263 280.421691,146.701795 L198.246472,150.409387 Z" id="Path-5" fill="#F6F6F6"></path>
                <path d="M111.456311,0.800115004 L186.479653,143.348501 L239.334082,43.4995382 C222.214232,27.3612885 202.734411,15.6459218 180.894618,8.35343812 C159.054826,1.06095441 135.908723,-1.45681996 111.456311,0.800115004 Z" id="Path-6" fill="#F6F6F6"></path>
            </g>
        </g>
    </g>
</svg>