<svg width="113" height="98" viewBox="0 0 113 98" fill="none" xmlns="http://www.w3.org/2000/svg">
<path d="M7.38243 17.6653C7.38956 17.8378 7.40955 17.9874 7.4424 18.1141C7.47525 18.2409 7.51219 18.364 7.55323 18.4833C7.58685 18.5945 7.61657 18.7055 7.64239 18.8163C7.67639 18.9196 7.69754 19.0458 7.70582 19.1948C7.63338 19.3946 7.57732 19.5796 7.53763 19.7497C7.50574 19.9202 7.46957 20.0984 7.42911 20.2841C7.29078 20.551 7.15789 20.7869 7.03044 20.9918C6.90299 21.1967 6.8003 21.3755 6.72237 21.5281C6.68143 21.5652 6.644 21.6103 6.61009 21.6633C6.58437 21.709 6.55456 21.7584 6.52065 21.8115C6.50389 21.8341 6.48265 21.8682 6.45692 21.9139C6.4312 21.9596 6.41016 21.9898 6.39378 22.0046L6.16373 21.9112L6.10247 22.2015L5.93629 22.2402L5.81231 22.3749C5.65134 22.625 5.48449 22.8358 5.31177 23.0072C5.13943 23.1708 4.94445 23.3176 4.72683 23.4476C4.51741 23.5703 4.27715 23.6836 4.00607 23.7875C3.74279 23.8918 3.44382 24.0061 3.10916 24.1304C2.97728 24.1082 2.86062 24.0947 2.75918 24.0897C2.66593 24.0772 2.57658 24.065 2.49114 24.053C2.34288 24.0456 2.16009 24.0249 1.94276 23.9907C1.92243 23.9271 1.88944 23.8824 1.84378 23.8567C1.79811 23.831 1.75578 23.8172 1.71676 23.8153C1.58719 23.7463 1.49018 23.6515 1.42574 23.531C1.36948 23.4031 1.3136 23.2674 1.25811 23.1238C1.22334 23.0361 1.18818 22.9561 1.15263 22.884C1.11747 22.804 1.0784 22.7238 1.03544 22.6435L1.2373 22.5948L0.993676 22.3012C0.979226 22.277 0.960682 22.2565 0.938044 22.2398C0.915791 22.2152 0.897439 22.1908 0.882989 22.1667L0.880532 21.9788C0.883708 21.4392 0.896277 20.9471 0.918239 20.5023C0.94839 20.0501 1.03066 19.6513 1.16504 19.306L1.1714 19.1772C1.20328 19.0067 1.23363 18.8674 1.26243 18.7594C1.29162 18.6435 1.31652 18.5352 1.33714 18.4345C1.36902 18.264 1.41203 18.1058 1.46617 17.9598C1.57657 17.9418 1.66062 17.9029 1.71832 17.8432C1.77641 17.7757 1.82631 17.7156 1.86802 17.6629C1.97765 17.6605 2.05101 17.6797 2.0881 17.7207C2.12519 17.7616 2.16112 17.826 2.1959 17.9137C2.23144 17.9859 2.27441 18.0662 2.32479 18.1548C2.38298 18.2437 2.46944 18.3144 2.58417 18.367C2.59669 18.4302 2.61292 18.4975 2.63287 18.5689C2.661 18.6329 2.68874 18.7046 2.7161 18.7842C2.77197 18.9199 2.81966 19.0631 2.85916 19.2137C2.90684 19.3568 2.93131 19.4949 2.93256 19.6279C2.84721 19.7723 2.77631 19.9409 2.71986 20.1337C2.67121 20.3268 2.63408 20.5245 2.60846 20.7266C2.59102 20.9213 2.58548 21.1126 2.59184 21.3007C2.60639 21.4813 2.63399 21.6352 2.67464 21.7623L2.73735 21.918L2.93749 21.9044C3.17466 21.8535 3.38861 21.7976 3.57935 21.7366C3.77828 21.6682 3.96218 21.5873 4.13105 21.494C4.29993 21.4006 4.46176 21.2913 4.61657 21.166C4.77176 21.0328 4.93572 20.8806 5.10845 20.7092C5.28117 20.5378 5.43164 20.3419 5.55986 20.1214C5.69627 19.8935 5.80965 19.6566 5.90001 19.4107C5.99817 19.1653 6.07273 18.9226 6.12369 18.6826C6.18284 18.4352 6.22561 18.2027 6.25201 17.985C6.38697 17.9447 6.45792 17.8543 6.46485 17.7139L6.4478 17.584C6.4189 17.5356 6.4216 17.481 6.45589 17.4201C6.51003 17.2742 6.62486 17.1664 6.80038 17.0969C6.92137 17.181 7.02638 17.2723 7.11539 17.3705C7.21221 17.4692 7.30122 17.5674 7.38243 17.6653ZM7.60626 19.0726C7.66898 18.9114 7.76174 18.7752 7.88457 18.664C8.0152 18.5531 8.15266 18.4621 8.29697 18.391C8.44947 18.3125 8.60509 18.2498 8.76385 18.2028C8.9226 18.1559 9.07317 18.1164 9.21555 18.0844C9.53422 17.9671 9.87202 17.8586 10.2289 17.7589C10.594 17.6518 10.9623 17.5605 11.3336 17.485C11.7128 17.4098 12.098 17.3702 12.4893 17.366C12.881 17.3541 13.2884 17.4211 13.7114 17.5672C13.7309 17.6464 13.7624 17.7222 13.8057 17.7948C13.8491 17.8673 13.8924 17.9398 13.9358 18.0124C13.9869 18.0853 14.0303 18.1578 14.0658 18.23C14.1018 18.2943 14.1219 18.3618 14.1262 18.4324C14.2008 18.5065 14.2594 18.5876 14.302 18.6758C14.3449 18.7561 14.3475 18.8618 14.3098 18.9929C14.2286 19.0515 14.1477 19.1062 14.067 19.157C13.9945 19.2003 13.9143 19.2394 13.8265 19.2741C13.5413 19.1897 13.2498 19.1518 12.9522 19.1606C12.6545 19.1693 12.3882 19.1757 12.1534 19.1798C12.0866 19.1061 12.0025 19.0668 11.9011 19.0617C11.8075 19.0571 11.7052 19.0677 11.5945 19.0935C11.4915 19.1197 11.3846 19.1457 11.2738 19.1716C11.1708 19.1978 11.0729 19.2008 10.98 19.1805C10.8989 19.2391 10.7993 19.2772 10.6811 19.2948C10.5711 19.305 10.4493 19.3147 10.3159 19.3237C10.3062 19.3624 10.3127 19.3901 10.3353 19.4068C10.3583 19.4158 10.3611 19.4394 10.3435 19.4776C10.3876 19.5346 10.4442 19.5765 10.5133 19.6033C10.5902 19.6306 10.6671 19.6579 10.7439 19.6851C10.8286 19.7128 10.9012 19.7476 10.9617 19.7897C11.0226 19.824 11.0628 19.8808 11.0824 19.96C11.1994 19.9657 11.2995 19.9981 11.3826 20.0569C11.4658 20.1158 11.5327 20.1856 11.5835 20.2663C11.6343 20.347 11.669 20.4348 11.6878 20.5296C11.7148 20.6169 11.7265 20.6957 11.7231 20.766C11.7434 20.8296 11.7694 20.8582 11.801 20.852C11.8326 20.8457 11.8669 20.863 11.904 20.904C11.9224 21.0066 11.9757 21.1148 12.0639 21.2287C12.1526 21.3347 12.2211 21.4515 12.2696 21.5791C12.2755 21.7749 12.2786 21.9511 12.2787 22.1075C12.2792 22.2561 12.2443 22.407 12.1742 22.5599C12.0429 22.8429 11.8663 23.0923 11.6445 23.3082C11.4304 23.5244 11.1863 23.7157 10.9122 23.8821C10.6462 24.0411 10.3619 24.1756 10.0592 24.2859C9.75649 24.3961 9.46258 24.4871 9.17743 24.5591C9.14661 24.5498 9.1154 24.5482 9.0838 24.5545C9.0522 24.5607 9.04536 24.5409 9.06328 24.4948C8.99816 24.5463 8.9262 24.578 8.8474 24.5897C8.7764 24.6019 8.69818 24.6019 8.61273 24.5899C8.5269 24.5856 8.43735 24.5773 8.3441 24.5649C8.25866 24.5528 8.17653 24.5527 8.09773 24.5645C8.04581 24.5071 7.99779 24.45 7.95366 24.3931C7.91696 24.3443 7.88883 24.2804 7.86928 24.2012C7.83026 24.1993 7.81172 24.1788 7.81364 24.1398C7.82337 24.1011 7.81263 24.0811 7.78142 24.0795C7.83209 24.0038 7.85372 23.9618 7.8463 23.9537C7.84707 23.9381 7.83594 23.9258 7.81292 23.9168C7.7977 23.9082 7.78248 23.8997 7.76726 23.8911C7.75242 23.8747 7.74948 23.855 7.75844 23.832C7.79274 23.7711 7.80791 23.7015 7.80396 23.623C7.80039 23.5368 7.79683 23.4506 7.79327 23.3644C7.7897 23.2782 7.79765 23.1964 7.81711 23.1192C7.84437 23.0423 7.90597 22.9828 8.00192 22.9406C8.26568 22.9849 8.51576 22.9894 8.75216 22.9541C8.99675 22.9115 9.2267 22.8485 9.44201 22.7653C9.65731 22.6821 9.8613 22.5904 10.054 22.4904C10.2544 22.3908 10.4504 22.3027 10.6419 22.2261C10.6688 22.1571 10.7029 22.1001 10.7442 22.0552C10.7934 22.0107 10.8423 21.9701 10.891 21.9334C10.9398 21.8967 10.9848 21.8559 11.0262 21.811C11.0675 21.7661 11.0977 21.7089 11.1168 21.6395C11.1273 21.5852 11.1132 21.5533 11.0746 21.5435C11.0441 21.5264 11.0301 21.4944 11.0324 21.4476L10.9053 21.4061C10.7613 21.313 10.597 21.2344 10.4125 21.1706C10.2283 21.0989 10.0716 21.0247 9.9424 20.9479C9.85426 20.9905 9.77175 20.9981 9.69487 20.9709C9.6258 20.944 9.53332 20.916 9.41743 20.8868C9.1529 20.8581 8.89675 20.8181 8.64898 20.7667C8.40902 20.7158 8.17839 20.634 7.95712 20.5214C7.94344 20.4816 7.92566 20.4455 7.90379 20.4131C7.88193 20.3808 7.8394 20.3708 7.7762 20.3834C7.73247 20.3186 7.68854 20.2578 7.64442 20.2009C7.60068 20.1361 7.56104 20.0677 7.52549 19.9955C7.54572 19.9027 7.56128 19.8252 7.57216 19.7632C7.58344 19.6933 7.5633 19.6258 7.51176 19.5607C7.54798 19.4608 7.57544 19.38 7.59413 19.3184C7.61282 19.2567 7.61686 19.1748 7.60626 19.0726ZM19.575 18.3378C19.5801 18.3928 19.578 18.4357 19.5687 18.4665C19.5675 18.4899 19.5625 18.5131 19.5535 18.5362C19.5524 18.5596 19.551 18.5869 19.5495 18.6181C19.5483 18.6415 19.5542 18.6809 19.5671 18.7363C19.3901 18.9935 19.1899 19.1674 18.9664 19.2581C18.7511 19.3413 18.5174 19.4002 18.2654 19.4347C18.0138 19.4614 17.7542 19.4916 17.4866 19.5253C17.2268 19.5594 16.9643 19.6481 16.6991 19.7914C16.5996 19.7474 16.5059 19.7428 16.4182 19.7776C16.3382 19.8127 16.2206 19.8187 16.0653 19.7953C16.0162 19.8399 15.9559 19.8721 15.8845 19.892C15.8135 19.9042 15.7423 19.9202 15.6709 19.9401C15.6987 20.0119 15.7067 20.0866 15.6951 20.1643C15.6916 20.2345 15.7004 20.2936 15.7215 20.3416C15.9935 20.3785 16.2941 20.3894 16.6233 20.3744C16.9604 20.3597 17.2891 20.3564 17.6094 20.3644C17.6153 20.4038 17.61 20.4309 17.5937 20.4457C17.5777 20.4528 17.5728 20.4721 17.5791 20.5037C17.6318 20.5454 17.6839 20.5988 17.7354 20.6639C17.7873 20.7212 17.8393 20.7786 17.8912 20.8359C17.9431 20.8932 17.9954 20.9427 18.0481 20.9844C18.109 21.0187 18.1787 21.0339 18.2571 21.0299C18.2852 21.0939 18.3012 21.1651 18.3052 21.2435C18.3173 21.3145 18.3059 21.3883 18.2708 21.4647C18.1417 21.5444 18.0124 21.628 17.883 21.7155C17.7539 21.7951 17.6174 21.8666 17.4734 21.9299C17.3373 21.9936 17.1901 22.045 17.0317 22.0841C16.8815 22.1158 16.713 22.1231 16.5261 22.106C16.4871 22.1041 16.4559 22.1026 16.4325 22.1014C16.4169 22.1006 16.394 22.0878 16.364 22.0628C16.2996 22.0988 16.2093 22.106 16.093 22.0847C15.9846 22.0637 15.8982 22.0711 15.8338 22.1071C15.7499 22.0638 15.6453 22.043 15.5201 22.0446C15.4031 22.0389 15.2985 22.018 15.2064 21.9822C15.0735 22.1399 14.9516 22.3099 14.841 22.4922C14.7303 22.6744 14.6307 22.869 14.5423 23.0758C14.8056 23.1279 15.0234 23.1543 15.1954 23.155C15.3753 23.156 15.5436 23.1526 15.7004 23.1447C15.8577 23.129 16.0186 23.1174 16.1832 23.1099C16.3482 23.0946 16.5554 23.097 16.8047 23.1171C16.965 23.039 17.1511 22.9934 17.3629 22.9804C17.5829 22.96 17.7842 22.923 17.9668 22.8694C18.028 22.8959 18.0805 22.9415 18.1243 23.0063C18.1684 23.0632 18.2086 23.1199 18.2449 23.1765C18.2894 23.2256 18.3341 23.2708 18.379 23.3122C18.4239 23.3535 18.4817 23.372 18.5523 23.3677C18.582 23.4004 18.5995 23.4404 18.605 23.4876C18.6187 23.5274 18.6285 23.567 18.6344 23.6064C18.6402 23.6458 18.6502 23.6815 18.6643 23.7134C18.6865 23.738 18.7213 23.7476 18.7685 23.7421C18.6387 23.9938 18.4923 24.186 18.3293 24.3188C18.1745 24.4441 17.9978 24.5371 17.7993 24.5976C17.6008 24.6582 17.3796 24.7021 17.1358 24.7291C16.8997 24.7566 16.636 24.7905 16.3446 24.8309C16.2736 24.843 16.2153 24.8362 16.1696 24.8105C16.1236 24.7926 16.0694 24.7821 16.0069 24.779C15.8255 24.8092 15.6092 24.8337 15.358 24.8526C15.1067 24.8714 14.8526 24.8706 14.5955 24.8501C14.3383 24.8296 14.0943 24.7823 13.8633 24.7084C13.6319 24.6422 13.4457 24.5313 13.3048 24.3757C13.2451 24.318 13.2052 24.2535 13.1853 24.1821C13.1735 24.1033 13.1257 24.0423 13.0418 23.999C13.039 23.8972 13.029 23.7833 13.0117 23.6573C12.9945 23.5313 12.9774 23.4014 12.9606 23.2675C12.9441 23.1259 12.9313 22.9884 12.9223 22.855C12.921 22.722 12.9348 22.6014 12.9636 22.4933C12.9928 22.3774 13.0448 22.2744 13.1197 22.1842C13.2023 22.0944 13.2346 21.9944 13.2166 21.884C13.256 21.8781 13.2804 21.8597 13.2897 21.8289C13.2995 21.7903 13.3315 21.7762 13.3857 21.7867C13.4394 21.6486 13.4967 21.5184 13.5575 21.3963C13.6183 21.2741 13.6789 21.1559 13.7393 21.0415C13.8075 20.9276 13.8718 20.8134 13.9322 20.6991C14.0008 20.5773 14.066 20.4436 14.128 20.2981C14.0237 20.1912 13.9472 20.078 13.8984 19.9582C13.8577 19.831 13.8286 19.7084 13.8109 19.5902C13.7937 19.4642 13.7804 19.3384 13.7709 19.2127C13.7619 19.0793 13.7411 18.9453 13.7086 18.8107C13.7924 18.6975 13.8907 18.6085 14.0034 18.5437C14.1243 18.4714 14.2522 18.4152 14.3872 18.3749C14.5222 18.3347 14.6684 18.3028 14.8261 18.2793C14.9837 18.2558 15.1492 18.2287 15.3228 18.1982C15.64 18.1122 15.9208 18.0478 16.1654 18.0051C16.4178 17.9628 16.6618 17.9319 16.8975 17.9122C17.1413 17.8852 17.3927 17.8624 17.6517 17.8439C17.9108 17.8254 18.2057 17.793 18.5365 17.7468C18.6033 17.8205 18.6679 17.8588 18.7303 17.8619C18.765 17.7932 18.801 17.7755 18.8385 17.8086C18.8842 17.8343 18.9048 17.8119 18.9005 17.7413C18.972 17.8778 19.0639 17.9957 19.1764 18.0951C19.297 18.1871 19.4299 18.268 19.575 18.3378ZM24.8951 22.0382C24.8854 22.0769 24.8758 22.1116 24.8665 22.1424C24.8575 22.1654 24.8486 22.1885 24.8396 22.2115C24.8307 22.2345 24.8252 22.2655 24.8233 22.3045C24.8217 22.3358 24.8196 22.3787 24.8169 22.4333C24.5624 22.8353 24.2488 23.1679 23.876 23.4311C23.5109 23.6946 23.1085 23.9251 22.6685 24.1224C22.2368 24.3122 21.7862 24.4855 21.317 24.6423C20.8482 24.7912 20.3902 24.9563 19.9433 25.1376C19.7583 25.0816 19.6178 24.9964 19.5217 24.8822C19.4335 24.7683 19.3655 24.6398 19.3179 24.4966C19.2784 24.3461 19.2511 24.1844 19.2362 24.0116C19.2295 23.8313 19.2229 23.6472 19.2166 23.4591C19.2442 23.3745 19.2789 23.3058 19.3206 23.2531C19.3705 23.193 19.3981 23.1083 19.4035 22.999C19.476 22.7992 19.5482 22.6034 19.6203 22.4114C19.6923 22.2194 19.7412 22.0223 19.7668 21.8202C19.7933 21.7589 19.8383 21.7181 19.9019 21.6978C19.9594 21.3252 19.9781 20.9468 19.958 20.5625C19.946 20.1708 19.9015 19.8049 19.8244 19.4647C19.8361 19.3871 19.8466 19.3328 19.8559 19.302C19.8735 19.2638 19.8748 19.2365 19.86 19.2201C19.8553 19.1573 19.8763 19.127 19.9231 19.1293C19.9778 19.132 20.0324 19.1347 20.087 19.1374C20.0928 19.0204 20.0752 18.9022 20.0341 18.7828C20.0009 18.6638 19.9684 18.5293 19.9367 18.3791C19.9971 18.2647 20.0378 18.1533 20.0588 18.0449C20.0802 17.9286 20.1203 17.8289 20.1792 17.7457C20.594 17.8992 20.988 18.079 21.3611 18.2852C21.742 18.4917 22.1176 18.6471 22.4879 18.7515C22.7588 18.9682 23.0375 19.1853 23.3239 19.4029C23.6108 19.6126 23.8692 19.8443 24.0992 20.0982C24.3295 20.3442 24.5191 20.6234 24.6679 20.9358C24.8168 21.2483 24.8925 21.6157 24.8951 22.0382ZM22.0894 22.545C22.2563 22.4907 22.4195 22.4322 22.5791 22.3697C22.7464 22.3076 22.8985 22.2369 23.0354 22.1576C23.1805 22.0709 23.3105 21.9717 23.4255 21.8601C23.5406 21.7484 23.6372 21.6124 23.7155 21.452C23.6734 21.3561 23.615 21.271 23.5404 21.197C23.4662 21.1151 23.3917 21.041 23.3167 20.9747C23.2422 20.9006 23.1676 20.8266 23.093 20.7525C23.0263 20.6788 22.972 20.5901 22.9302 20.4863C22.8295 20.4657 22.7411 20.434 22.665 20.3911C22.5893 20.3404 22.5134 20.2937 22.4373 20.2508C22.3694 20.2005 22.2935 20.1537 22.2096 20.1105C22.1335 20.0676 22.041 20.0396 21.9321 20.0264C21.7647 19.9321 21.6117 19.8619 21.4732 19.816C21.3425 19.7704 21.2435 19.7147 21.1764 19.6488C21.1218 19.6461 21.0783 19.6557 21.0459 19.6776C21.1093 19.9779 21.1539 20.2617 21.1799 20.529C21.2062 20.7884 21.2128 21.0507 21.1997 21.316C21.1948 21.5739 21.1699 21.8386 21.1252 22.1102C21.0806 22.3818 21.023 22.6762 20.9526 22.9934C21.031 22.9894 21.102 22.9773 21.1656 22.957C21.2373 22.9292 21.3052 22.9013 21.3692 22.8732C21.4409 22.8454 21.5125 22.8216 21.5839 22.8016C21.6635 22.7743 21.7542 22.7592 21.856 22.7564C21.8817 22.7108 21.9148 22.6733 21.9554 22.644C22.0038 22.6151 22.0484 22.5821 22.0894 22.545ZM35.8823 23.8362C35.928 23.8619 35.9533 23.9023 35.9585 23.9573C35.9636 24.0123 35.9614 24.0552 35.9521 24.086C35.8028 24.2586 35.6991 24.3786 35.641 24.4461C35.5829 24.5137 35.5412 24.5664 35.5159 24.6042C35.4909 24.6343 35.4622 24.6602 35.4299 24.6821C35.4053 24.7044 35.3443 24.7522 35.2468 24.8256C34.8853 25.0189 34.5132 25.1883 34.1305 25.3337C33.7557 25.4794 33.3639 25.5735 32.955 25.6159C32.8884 25.6986 32.7645 25.7512 32.5835 25.7735C32.4099 25.8041 32.2482 25.8313 32.0984 25.8552C32.068 25.838 32.0496 25.8136 32.0434 25.7821C32.0445 25.7586 32.0299 25.7384 31.9995 25.7212C31.9878 25.7989 31.9508 25.8361 31.8883 25.8331C31.8255 25.8378 31.7483 25.8183 31.6566 25.7747C31.5723 25.7392 31.4809 25.6878 31.3826 25.6204C31.2916 25.5611 31.2122 25.5063 31.1443 25.4561C31.1022 25.5166 31.0562 25.5769 31.0063 25.637C30.9642 25.6975 30.9114 25.7379 30.8478 25.7582C30.7627 25.7384 30.697 25.7234 30.6505 25.7133C30.6119 25.7035 30.5721 25.7172 30.5312 25.7543C30.4855 25.7286 30.4479 25.6994 30.4182 25.6666C30.3963 25.6342 30.3706 25.6017 30.3409 25.5689C30.3186 25.5444 30.2886 25.5194 30.2507 25.4941C30.2207 25.4691 30.1748 25.4473 30.1132 25.4286C30.1303 25.3982 30.1248 25.351 30.0967 25.287C30.0689 25.2152 30.0242 25.17 29.9626 25.1513C29.9965 25.0982 29.9842 25.0311 29.9256 24.95C29.8752 24.8615 29.8369 24.7657 29.8107 24.6628C29.8306 24.5777 29.8469 24.4846 29.8597 24.3836C29.8725 24.2825 29.9222 24.2263 30.0088 24.215C30.0037 24.16 29.9943 24.1126 29.9806 24.0728C29.967 24.033 29.9533 23.9932 29.9396 23.9534C29.9965 23.9093 30.0382 23.8566 30.0647 23.7953C30.0916 23.7263 30.1146 23.657 30.1337 23.5875C30.1527 23.5181 30.1757 23.4488 30.2026 23.3797C30.2295 23.3107 30.2753 23.2543 30.34 23.2105C30.4218 22.9799 30.4849 22.8109 30.5293 22.7036C30.5741 22.5885 30.607 22.4767 30.628 22.3682C30.6568 22.2602 30.686 22.1443 30.7156 22.0206C30.7529 21.8973 30.8114 21.7437 30.8908 21.5599C30.8888 21.4425 30.9055 21.3416 30.941 21.2573C30.9768 21.1652 31.0125 21.077 31.0479 20.9928C31.0915 20.901 31.1274 20.8089 31.1554 20.7165C31.1838 20.6162 31.1857 20.4989 31.161 20.3648C31.0514 20.3672 30.9715 20.4023 30.9212 20.4702C30.8713 20.5304 30.8358 20.6146 30.8148 20.7231C30.7493 20.7825 30.6697 20.8098 30.5761 20.8052C30.4907 20.7932 30.4122 20.7971 30.3409 20.817C30.0732 20.6943 29.8546 20.5271 29.6851 20.3153C29.5157 20.1036 29.3831 19.8585 29.2873 19.58C29.3664 19.404 29.4791 19.2609 29.6253 19.1508C29.7719 19.0329 29.9369 18.9394 30.1202 18.8702C30.3039 18.7932 30.4984 18.7363 30.7035 18.6995C30.9091 18.6549 31.1067 18.6139 31.2963 18.5763C31.6033 18.5367 31.9107 18.4893 32.2185 18.4341C32.5263 18.3789 32.8552 18.3717 33.2051 18.4124C33.2531 18.3913 33.3083 18.3823 33.3707 18.3854C33.4413 18.3811 33.5118 18.3806 33.582 18.3841C33.6522 18.3876 33.7185 18.3908 33.781 18.3939C33.8516 18.3896 33.9109 18.3769 33.9588 18.3558C33.9955 18.4045 34.0486 18.4384 34.1181 18.4575C34.1957 18.4691 34.2759 18.5083 34.3587 18.575C34.4558 18.5094 34.5346 18.4976 34.5951 18.5397C34.6634 18.5822 34.7237 18.6282 34.776 18.6777C34.8283 18.7272 34.8769 18.7726 34.9218 18.814C34.9745 18.8557 35.0281 18.8779 35.0828 18.8806C35.1339 18.9535 35.197 19.0231 35.2719 19.0894C35.3547 19.156 35.4294 19.2262 35.4962 19.2999C35.5711 19.3662 35.6301 19.4395 35.673 19.5198C35.7238 19.6006 35.7467 19.6917 35.7417 19.7931C35.732 19.8317 35.7425 19.8557 35.7733 19.8651C35.8042 19.8744 35.8268 19.8912 35.8412 19.9153C35.8371 20.1576 35.7877 20.3664 35.693 20.5416C35.6065 20.7094 35.4971 20.8644 35.365 21.0065C35.2406 21.1489 35.101 21.2828 34.9462 21.4082C34.7992 21.5339 34.6635 21.668 34.5392 21.8105C34.6122 21.9158 34.6975 22.0099 34.7951 22.093C34.8927 22.176 34.9902 22.259 35.0878 22.3421C35.1932 22.4255 35.2906 22.5124 35.38 22.6029C35.4694 22.6934 35.5424 22.7986 35.5991 22.9188C35.6139 22.9351 35.6327 22.9517 35.6553 22.9685C35.6783 22.9774 35.7011 22.9903 35.7238 23.0071C35.7433 23.0862 35.7705 23.1697 35.8053 23.2575C35.8404 23.3374 35.8678 23.417 35.8874 23.4962C35.9151 23.568 35.9313 23.6352 35.9361 23.6981C35.9412 23.7531 35.9232 23.7991 35.8823 23.8362ZM34.0153 19.8252C33.6182 19.7899 33.2185 19.8054 32.8163 19.8716C32.4219 19.9381 32.0882 20.0429 31.8152 20.1859C31.9425 20.3017 32.0703 20.4057 32.1987 20.4981C32.3349 20.5909 32.4384 20.7133 32.5091 20.8654C32.8196 20.7556 33.0965 20.6129 33.3398 20.4371C33.5835 20.2536 33.8087 20.0496 34.0153 19.8252ZM33.9831 23.5664C34.0104 23.4896 34.0564 23.4292 34.1211 23.3855C34.1859 23.3418 34.2504 23.3019 34.3148 23.266C34.3795 23.2223 34.4364 23.1782 34.4856 23.1336C34.5351 23.0813 34.5582 23.0082 34.5551 22.9142C34.3119 22.7692 34.0856 22.6798 33.8761 22.646C33.6747 22.6047 33.4796 22.5951 33.2908 22.6171C33.1102 22.6316 32.9327 22.662 32.7584 22.7081C32.5918 22.7546 32.4221 22.7854 32.2493 22.8003C32.1523 23.0223 32.0504 23.2637 31.9437 23.5244C31.8369 23.7851 31.7345 24.0381 31.6363 24.2836C31.872 24.2639 32.0888 24.2277 32.287 24.1749C32.4855 24.1143 32.6765 24.0494 32.8598 23.9803C33.0509 23.9115 33.2342 23.8423 33.4098 23.7728C33.5935 23.6958 33.7846 23.627 33.9831 23.5664ZM39.6498 22.8607C39.5929 22.9048 39.5432 22.961 39.5007 23.0293C39.4586 23.0898 39.4163 23.1542 39.3738 23.2225C39.3306 23.3064 39.2836 23.3862 39.233 23.4619C39.1823 23.5376 39.1203 23.605 39.047 23.6639C39.0022 23.7791 38.9586 23.8708 38.9161 23.9391C38.874 23.9996 38.8079 24.0706 38.7178 24.1522C38.6244 24.4605 38.4243 24.7908 38.1174 25.1433C38.1062 25.2132 38.0793 25.2822 38.0368 25.3505C38.0025 25.4114 37.9643 25.4721 37.9222 25.5326C37.9055 25.5553 37.8885 25.5818 37.8714 25.6122C37.8546 25.6349 37.8419 25.6538 37.8333 25.669L37.8042 25.7849C37.7621 25.8454 37.7164 25.8979 37.6673 25.9424C37.6182 25.9869 37.5732 26.0277 37.5322 26.0648C37.5154 26.0875 37.4866 26.1173 37.4457 26.1544L37.2666 26.216C36.7009 26.1098 36.3686 25.7883 36.27 25.2516L36.2875 25.1351C36.305 25.0969 36.3186 25.0584 36.3284 25.0198C36.3463 24.9737 36.3642 24.9277 36.3821 24.8817C36.4187 24.774 36.4592 24.6664 36.5037 24.5591C36.5559 24.4522 36.627 24.3579 36.7171 24.2763C36.7354 24.2225 36.7747 24.1384 36.8351 24.024C36.8959 23.9019 36.9986 23.7231 37.1432 23.4878C37.2617 23.3059 37.3548 23.1619 37.4227 23.0557C37.4905 22.9496 37.5454 22.8663 37.5875 22.8058C37.5157 22.6771 37.4276 22.5593 37.3234 22.4525C37.2316 22.2524 37.1511 22.0607 37.0819 21.8774C37.0206 21.6944 36.9738 21.5318 36.9418 21.3894C36.939 21.2876 36.9315 21.2011 36.9194 21.1301C36.9072 21.0591 36.8953 20.9842 36.8835 20.9054C36.8644 20.8185 36.8491 20.7317 36.8377 20.6451C36.8264 20.5585 36.823 20.4683 36.8276 20.3747C36.7913 20.3182 36.7706 20.2624 36.7655 20.2074L36.7947 20.0915C36.8208 20.038 36.8281 19.968 36.8168 19.8814C36.8058 19.787 36.7909 19.6924 36.7721 19.5976C36.7604 19.5188 36.7451 19.432 36.7263 19.3372C36.7153 19.2428 36.716 19.149 36.7285 19.0557C36.7409 18.9625 36.7685 18.8778 36.8114 18.8017C36.8625 18.7182 36.9403 18.6477 37.0448 18.5903L37.2443 18.5884C37.3126 18.6309 37.377 18.6732 37.4375 18.7153C37.5062 18.7499 37.5708 18.7883 37.6313 18.8304C37.7152 18.8737 37.7952 18.9167 37.8713 18.9596C37.9474 19.0025 38.0269 19.0572 38.1096 19.1239L38.1834 19.2918L38.3292 19.4281L38.3229 19.5568C38.3291 19.5884 38.3309 19.6315 38.3282 19.6862C38.3232 19.7876 38.3357 19.8508 38.3658 19.8757L38.4057 20.0185C38.4003 20.1277 38.4068 20.2337 38.4252 20.3363C38.444 20.431 38.463 20.5219 38.4821 20.6089C38.5013 20.6959 38.5203 20.7868 38.5391 20.8816C38.5578 20.9764 38.5567 21.078 38.5357 21.1865C38.5837 21.1654 38.6241 21.14 38.6568 21.1103C38.6732 21.0955 38.6894 21.0846 38.7054 21.0775C38.7214 21.0705 38.7376 21.0596 38.7539 21.0447L39.4907 20.1425L39.4731 20.0243L39.7305 19.8023C39.796 19.743 39.8574 19.6873 39.9147 19.6354C39.9798 19.5839 40.0334 19.5279 40.0755 19.4674L40.2089 19.3801C40.4779 19.0023 40.8448 18.7779 41.3098 18.707L41.4749 18.6917L41.5142 18.8462C41.5411 18.9335 41.5997 19.0146 41.6899 19.0895C41.7878 19.1647 41.8899 19.2363 41.9961 19.3041L42.0979 19.3795C42.1331 19.4595 42.1497 19.5189 42.1478 19.558C42.1459 19.597 42.1402 19.6319 42.1309 19.6627L42.1719 19.7821C42.1003 19.9663 42.0155 20.099 41.9176 20.1802C41.8275 20.2618 41.7379 20.3356 41.6486 20.4016C41.5752 20.4605 41.506 20.5158 41.4409 20.5673C41.384 20.6114 41.338 20.6717 41.3029 20.7482L41.2164 20.8378C41.0479 20.9233 40.9364 21.043 40.8818 21.1967L40.8398 21.3355L40.6993 21.3285C40.6915 21.3281 40.6713 21.3428 40.6385 21.3725C40.6139 21.3947 40.5716 21.4591 40.5116 21.5657C40.4532 21.641 40.4116 21.6898 40.3871 21.712C40.3625 21.7343 40.342 21.7528 40.3257 21.7677C40.3163 21.7985 40.3031 21.8291 40.2859 21.8596C40.277 21.8826 40.2637 21.9132 40.2462 21.9515C40.1397 22.0479 40.0735 22.1228 40.0474 22.1763C40.0216 22.222 39.9916 22.2752 39.9573 22.3361C39.923 22.397 39.8887 22.4579 39.8545 22.5188C39.8283 22.5722 39.7825 22.6286 39.717 22.688L39.6498 22.8607ZM53.3166 24.568C53.4993 24.6709 53.5871 24.7926 53.5802 24.933C53.5811 25.0739 53.5316 25.2044 53.4318 25.3246C53.3402 25.4374 53.2187 25.5214 53.0674 25.5765C52.9239 25.632 52.7953 25.6217 52.6817 25.5457C52.663 25.6074 52.6258 25.6485 52.57 25.6692C52.5224 25.6825 52.4895 25.7161 52.4712 25.77C51.7085 25.8496 50.9289 25.9558 50.1323 26.0886C49.3357 26.2213 48.5413 26.3112 47.7489 26.3581C47.1415 26.3046 46.6387 26.1899 46.2406 26.0138C46.0837 25.8652 45.9675 25.6835 45.8921 25.4686C45.8245 25.254 45.7886 25.0293 45.7846 24.7945C45.7805 24.5596 45.7995 24.3337 45.8415 24.1168C45.8839 23.892 45.9404 23.6993 46.0109 23.5385C46.4421 23.0435 46.8877 22.5727 47.3478 22.1261C47.8161 21.6721 48.3402 21.2756 48.9201 20.9366C49.094 20.7418 49.2936 20.5796 49.519 20.4499C49.7448 20.3125 49.9519 20.1584 50.1402 19.9878C49.9104 19.8904 49.6667 19.8354 49.4092 19.8227C49.1517 19.8099 48.897 19.8208 48.6449 19.8553C48.3933 19.882 48.1567 19.9212 47.9352 19.9728C47.7136 20.0244 47.5201 20.0618 47.3547 20.0849C47.2329 20.0163 47.0864 19.9739 46.9151 19.9576C46.7517 19.9417 46.5893 19.9024 46.4282 19.8397C46.3384 19.7571 46.2771 19.6524 46.2442 19.5256C46.2192 19.3992 46.206 19.2695 46.2048 19.1364C46.2035 19.0034 46.2058 18.8784 46.2116 18.7613C46.2177 18.6365 46.2071 18.5343 46.1798 18.4547C46.2472 18.3563 46.3068 18.2576 46.3587 18.1585C46.4183 18.0597 46.4853 17.9692 46.5598 17.8868C46.9316 17.8035 47.3414 17.7416 47.7892 17.7011C48.2374 17.6529 48.6877 17.6438 49.1398 17.6739C49.592 17.7041 50.0261 17.7842 50.4421 17.9142C50.8584 18.0365 51.2245 18.2266 51.5403 18.4847C51.5685 18.7051 51.6418 18.8847 51.7601 19.0236C51.8788 19.1546 52.0261 19.2596 52.2021 19.3387C52.2802 19.499 52.3465 19.6626 52.4008 19.8296C52.4555 19.9887 52.4901 20.1586 52.5047 20.3392C52.3282 20.7451 52.0885 21.0852 51.7855 21.3597C51.4907 21.6267 51.1932 21.8702 50.8929 22.09C50.7303 22.2149 50.557 22.3198 50.3729 22.4046C50.1888 22.4893 50.0273 22.5909 49.8885 22.7092C49.8558 22.7389 49.8341 22.7808 49.8236 22.835C49.8135 22.8815 49.7923 22.9156 49.7599 22.9375C49.6133 23.0554 49.4517 23.1608 49.275 23.2538C49.0987 23.339 48.9372 23.4405 48.7906 23.5584C48.6849 23.6392 48.5945 23.7286 48.5192 23.8266C48.4518 23.925 48.3616 24.0105 48.2485 24.0831C48.3866 24.1368 48.5222 24.1631 48.6552 24.1618C48.7961 24.161 48.9373 24.1523 49.0789 24.1358C49.2283 24.1197 49.3777 24.1037 49.5271 24.0876C49.6844 24.0719 49.8447 24.072 50.0082 24.0879C50.2383 24.021 50.4913 23.967 50.7671 23.9259C51.0433 23.8769 51.3175 23.867 51.5899 23.8961C51.8286 23.814 52.0542 23.7587 52.2668 23.7301C52.4876 23.694 52.695 23.6925 52.8889 23.7256C52.9884 23.7696 53.0591 23.8435 53.1009 23.9472C53.1505 24.0514 53.229 24.1257 53.3363 24.1701C53.3086 24.2547 53.2978 24.3168 53.3036 24.3562C53.3173 24.396 53.3217 24.4666 53.3166 24.568ZM55.395 26.9116C55.0884 26.9434 54.8082 26.914 54.5546 26.8232C54.3009 26.7325 54.0769 26.5963 53.8825 26.4146C53.6959 26.2333 53.5343 26.0219 53.3976 25.7805C53.2609 25.5391 53.1523 25.2834 53.0717 25.0135C53.0367 24.4564 53.081 23.9541 53.2048 23.5065C53.3286 23.059 53.4936 22.6486 53.6997 22.2755C53.9137 21.9028 54.1497 21.5586 54.4077 21.2428C54.6662 20.9192 54.9161 20.6108 55.1574 20.3177C55.2031 20.3434 55.2421 20.3453 55.2745 20.3235C55.3072 20.2938 55.3363 20.26 55.3616 20.2222C55.3947 20.1847 55.424 20.147 55.4493 20.1092C55.4824 20.0717 55.5228 20.0463 55.5704 20.033C55.6051 19.9643 55.647 19.9077 55.6961 19.8632C55.7456 19.8109 55.7949 19.7625 55.8441 19.718C55.901 19.6739 55.954 19.6296 56.0032 19.5851C56.0523 19.5406 56.0942 19.484 56.1289 19.4153C56.1999 19.4031 56.2636 19.3789 56.3202 19.3426C56.3771 19.2985 56.4302 19.2542 56.4793 19.2097C56.5284 19.1651 56.5774 19.1245 56.6261 19.0878C56.683 19.0437 56.7472 19.0117 56.8186 18.9917L56.8261 18.8396C56.9864 18.7615 57.104 18.6773 57.1788 18.5871C57.254 18.4892 57.346 18.3686 57.4548 18.2253C57.5336 18.2136 57.5962 18.2127 57.6427 18.2229C57.6895 18.2252 57.7562 18.2206 57.8428 18.2093C57.9196 18.0801 57.987 17.9817 58.0451 17.9142C58.1032 17.8467 58.189 17.7727 58.3024 17.6923C58.4008 17.7597 58.5118 17.8082 58.6355 17.8378C58.7596 17.8595 58.862 17.9233 58.9429 18.0289C58.9457 18.1308 58.9652 18.2099 59.0015 18.2665C59.0457 18.3234 59.0939 18.3767 59.1462 18.4262C59.1989 18.4679 59.2473 18.5172 59.2914 18.5741C59.3359 18.6233 59.3638 18.6911 59.3752 18.7777C59.4064 18.7793 59.4263 18.7724 59.4349 18.7572C59.4513 18.7424 59.4749 18.7396 59.5057 18.749C59.5178 18.82 59.5307 18.8754 59.5444 18.9152C59.5581 18.9549 59.5718 18.9947 59.5855 19.0345C59.5995 19.0665 59.6134 19.1024 59.6271 19.1422C59.6489 19.1745 59.6661 19.2223 59.6787 19.2855C59.635 19.3772 59.5949 19.4769 59.5583 19.5846C59.5295 19.6927 59.4712 19.7641 59.3834 19.7989C59.3804 19.8613 59.3981 19.8974 59.4368 19.9071C59.4832 19.9173 59.509 19.9498 59.5141 20.0048C59.5102 20.0829 59.4954 20.1447 59.4697 20.1904C59.6537 20.5827 59.8133 20.9934 59.9486 21.4225C60.092 21.8442 60.256 22.2473 60.4403 22.6318C60.4189 22.7481 60.4173 22.8614 60.4353 22.9718C60.4611 23.0826 60.4869 23.1934 60.5127 23.3042C60.5467 23.4076 60.5768 23.5107 60.603 23.6137C60.6371 23.7171 60.6592 23.8238 60.6694 23.9338C60.678 24.075 60.6705 24.2272 60.6468 24.3902C60.6313 24.5459 60.5965 24.6967 60.5424 24.8427C60.496 24.989 60.4347 25.1229 60.3583 25.2442C60.2819 25.3656 60.1953 25.4552 60.0986 25.513C60.0834 25.5044 60.0393 25.5257 59.9664 25.5769C59.8938 25.6202 59.8088 25.6786 59.7113 25.752C59.6217 25.8258 59.5277 25.9072 59.4294 25.9962C59.3312 26.0852 59.2452 26.1631 59.1715 26.2299C59.0748 26.2877 58.9671 26.3293 58.8485 26.3547C58.7381 26.3727 58.6237 26.3945 58.5051 26.4199C58.4083 26.4777 58.2919 26.5384 58.1558 26.6021C58.0279 26.6584 57.8925 26.7064 57.7498 26.7463C57.6148 26.7866 57.4804 26.8152 57.3466 26.832C57.2124 26.8567 57.095 26.8587 56.9943 26.8381C56.7314 26.9346 56.4783 26.9925 56.2348 27.0118C55.9988 27.0392 55.7189 27.0059 55.395 26.9116ZM55.871 22.5001C55.7993 22.6843 55.7169 22.8484 55.6237 22.9924C55.5306 23.1364 55.4372 23.2843 55.3437 23.4361C55.2579 23.5883 55.1794 23.7526 55.1082 23.929C55.0451 24.098 55.0038 24.2993 54.9845 24.533C55.1028 24.6719 55.247 24.7611 55.4171 24.8008C55.595 24.8409 55.7743 24.8536 55.9549 24.8391C56.1434 24.8249 56.3283 24.8028 56.5097 24.7726C56.6911 24.7425 56.8561 24.7271 57.0047 24.7267C57.0082 24.6564 57.037 24.6266 57.0913 24.6371C57.3503 24.6186 57.5968 24.5369 57.8308 24.392C58.073 24.2397 58.323 24.0878 58.5808 23.9362C58.617 23.8363 58.6602 23.7524 58.7105 23.6845C58.7686 23.617 58.8009 23.5169 58.8075 23.3842C58.7805 23.2969 58.7641 23.2335 58.7582 23.1941C58.7527 23.1469 58.7525 23.0726 58.7575 22.9711C58.6083 22.6665 58.4797 22.3395 58.3718 21.99C58.2721 21.6331 58.1515 21.3025 58.0101 20.9983C57.9926 21.0365 57.9634 21.0742 57.9224 21.1113C57.8815 21.1484 57.8389 21.1384 57.7948 21.0815C57.7481 21.2356 57.6744 21.3024 57.5737 21.2818C57.4809 21.2615 57.3935 21.2103 57.3115 21.128C57.0818 21.3435 56.8523 21.5551 56.6231 21.7628C56.3942 21.9627 56.187 22.1989 56.0014 22.4713C55.9691 22.4932 55.9492 22.5 55.9418 22.4918C55.9347 22.4758 55.9111 22.4786 55.871 22.5001ZM68.0899 26.9166C67.7146 26.9138 67.3833 26.8896 67.0962 26.8441C66.8168 26.799 66.5434 26.7112 66.2761 26.5807C66.2609 26.5721 66.2463 26.5518 66.2322 26.5199C66.2181 26.4879 66.2037 26.4637 66.1888 26.4473C66.1432 26.4216 66.085 26.4109 66.0144 26.4152C65.952 26.4122 65.8978 26.4017 65.8517 26.3837C65.7908 26.3494 65.6962 26.2861 65.5678 26.1937C65.4398 26.0935 65.323 26.0017 65.2177 25.9183C65.0826 25.8021 64.9553 25.6863 64.8359 25.5709C64.7164 25.4555 64.613 25.3331 64.5255 25.2036C64.5036 25.1712 64.4732 25.1541 64.4342 25.1522C64.3955 25.1424 64.361 25.129 64.3306 25.1119C64.0973 25.2411 63.8975 25.4073 63.731 25.6102C63.5646 25.8132 63.4057 26.0205 63.2545 26.232C63.1032 26.4436 62.9448 26.643 62.7791 26.8304C62.6134 27.0178 62.4071 27.1562 62.1602 27.2457C62.09 27.2422 62.0281 27.2274 61.9747 27.2013C61.9212 27.1752 61.872 27.1415 61.8271 27.1002C61.7818 27.0667 61.7366 27.0331 61.6913 26.9996C61.646 26.9661 61.5964 26.9402 61.5426 26.9219C61.5472 26.8282 61.532 26.7414 61.4968 26.6615C61.4694 26.5819 61.438 26.5061 61.4024 26.4339C61.3747 26.3621 61.3546 26.2947 61.342 26.2315C61.3299 26.1605 61.3488 26.0949 61.3987 26.0348C61.3542 25.9857 61.2864 25.9315 61.1955 25.8722C61.2446 25.8277 61.2663 25.7858 61.2604 25.7464C61.2623 25.7074 61.2564 25.668 61.2428 25.6282C61.2291 25.5884 61.2156 25.5447 61.2023 25.4971C61.1968 25.4499 61.2108 25.4037 61.2443 25.3584C61.2834 25.3603 61.3306 25.3548 61.386 25.3419C61.3422 25.2772 61.3205 25.2409 61.3209 25.2331C61.3295 25.2179 61.3227 25.198 61.3004 25.1734C61.2871 25.1258 61.2963 25.0989 61.3279 25.0927C61.3598 25.0786 61.3918 25.0645 61.4238 25.0505C61.4739 24.6697 61.5578 24.3179 61.6754 23.9952C61.793 23.6725 61.9217 23.362 62.0616 23.0639C62.2015 22.7657 62.3377 22.4635 62.4701 22.1571C62.6104 21.8512 62.7284 21.5207 62.8241 21.1656C62.9142 21.084 62.9855 20.9858 63.0381 20.8711C63.0985 20.7567 63.1589 20.6424 63.2193 20.528C63.2875 20.4141 63.3595 20.3042 63.4351 20.1984C63.5189 20.0852 63.6289 19.9968 63.765 19.9331C63.8738 19.9463 63.9698 19.9824 64.053 20.0412C64.1365 20.0923 64.2409 20.117 64.3661 20.1153C64.3876 20.1555 64.4052 20.1955 64.4188 20.2353C64.4403 20.2755 64.4657 20.3158 64.495 20.3564L64.6723 20.3299C64.7547 20.4044 64.8244 20.4978 64.8814 20.6101C64.9466 20.715 64.988 20.8266 65.0057 20.9448C65.0233 21.063 65.0138 21.1759 64.9772 21.2836C64.941 21.3835 64.8628 21.4618 64.7427 21.5184C64.7485 21.5578 64.747 21.589 64.738 21.6121C64.7373 21.6277 64.7326 21.6431 64.724 21.6583C64.7155 21.6735 64.7108 21.6889 64.71 21.7046C64.7092 21.7202 64.7198 21.7441 64.7417 21.7765C64.5798 21.8859 64.4547 22.0439 64.3662 22.2508C64.2778 22.4576 64.2257 22.6427 64.2098 22.8062C64.308 22.7172 64.4139 22.6325 64.5274 22.552C64.649 22.4642 64.7705 22.3802 64.8918 22.3002C65.0209 22.2205 65.142 22.1444 65.2551 22.0717C65.376 21.9995 65.4852 21.9266 65.5826 21.8532C65.8517 21.6319 66.1067 21.4567 66.3478 21.3278C66.597 21.1915 66.8587 21.0402 67.1328 20.8738C67.196 20.8613 67.2428 20.8636 67.2733 20.8807C67.3119 20.8905 67.3504 20.9041 67.3886 20.9216C67.3909 20.8748 67.3767 20.8467 67.3458 20.8374C67.3228 20.8284 67.3165 20.7968 67.327 20.7426C67.4456 20.7172 67.5488 20.6871 67.6366 20.6523C67.7247 20.6097 67.8205 20.5714 67.9238 20.5374C67.9906 20.6111 68.0533 20.6885 68.1118 20.7696C68.1708 20.8429 68.2545 20.8901 68.363 20.9111C68.3977 20.9988 68.4413 21.0675 68.4936 21.117C68.5463 21.1587 68.599 21.2004 68.6517 21.2421C68.7044 21.2838 68.7489 21.333 68.7852 21.3895C68.8293 21.4465 68.8524 21.5336 68.8544 21.6511C68.8205 21.7041 68.7825 21.7609 68.7404 21.8214C68.7061 21.8823 68.6712 21.9549 68.6358 22.0392C68.4728 22.1719 68.3067 22.2889 68.1374 22.39C67.976 22.4916 67.8108 22.589 67.6419 22.6824C67.473 22.7757 67.3003 22.8689 67.1236 22.9618C66.9469 23.0548 66.7654 23.1671 66.579 23.2987C66.5373 23.3514 66.484 23.3996 66.4193 23.4433C66.3628 23.4796 66.3021 23.5197 66.2374 23.5634C66.173 23.5993 66.1124 23.6394 66.0555 23.6835C65.9985 23.7276 65.9529 23.7801 65.9186 23.841C65.8948 23.8476 65.8712 23.8504 65.8478 23.8492C65.8244 23.8481 65.8008 23.8508 65.777 23.8575C65.7509 23.9109 65.7098 23.9519 65.6536 23.9804C65.6052 24.0093 65.5719 24.0507 65.5536 24.1045C65.6583 24.36 65.801 24.5587 65.9818 24.7006C66.1625 24.8425 66.3684 24.9504 66.5994 25.0244C66.8308 25.0906 67.0828 25.1343 67.3555 25.1556C67.6286 25.1691 67.9134 25.1832 68.21 25.1978C68.2416 25.1916 68.254 25.1765 68.2474 25.1527C68.2489 25.1215 68.269 25.1108 68.3076 25.1205C68.4918 25.1922 68.6318 25.289 68.7274 25.4111C68.8235 25.5254 68.939 25.6406 69.0741 25.7567C69.0438 26.0525 68.942 26.2938 68.7685 26.4808C68.595 26.6678 68.3688 26.8131 68.0899 26.9166ZM77.9549 20.5517C78.2807 20.6069 78.57 20.6876 78.8229 20.794C79.0757 20.9003 79.2881 21.036 79.4598 21.2009C79.575 21.4021 79.6817 21.6186 79.7798 21.8503C79.8856 22.0824 79.9597 22.3246 80.002 22.577C80.0525 22.822 80.0675 23.073 80.0469 23.3301C80.0342 23.5876 79.9667 23.8463 79.8444 24.1062C79.6042 24.376 79.3158 24.5925 78.9792 24.7557C78.6508 24.9116 78.2967 25.0349 77.9167 25.1257C77.5368 25.2164 77.142 25.2908 76.7324 25.3488C76.3306 25.4072 75.9366 25.4659 75.5504 25.5251C75.5493 25.7049 75.5399 25.8961 75.5221 26.0986C75.5125 26.2937 75.4831 26.4917 75.4341 26.6926C75.3932 26.8862 75.3331 27.0748 75.2536 27.2586C75.1741 27.4425 75.072 27.6095 74.9473 27.7598C74.8146 27.7532 74.6773 27.7621 74.5353 27.7864C74.3929 27.8184 74.2665 27.8435 74.1561 27.8615C74.1031 27.8276 74.0539 27.7939 74.0086 27.7604C73.9707 27.735 73.913 27.7165 73.8353 27.7049C73.8548 27.6276 73.8392 27.5486 73.7884 27.4679C73.738 27.3794 73.6876 27.2908 73.6372 27.2023C73.5869 27.1138 73.5519 27.0299 73.5323 26.9507C73.5206 26.8719 73.5632 26.7997 73.6604 26.7341C73.6084 26.6768 73.5846 26.6052 73.5888 26.5194C73.6481 26.4285 73.7012 26.302 73.7484 26.1401C73.8033 25.9785 73.8463 25.8203 73.8774 25.6654C73.9167 25.5031 73.9318 25.3552 73.9228 25.2218C73.9137 25.0884 73.8405 24.987 73.7031 24.9176C73.7117 24.9024 73.7277 24.8954 73.7511 24.8965C73.7745 24.8977 73.7981 24.8949 73.8219 24.8883C73.7618 24.8384 73.726 24.7701 73.7147 24.6835C73.7111 24.5973 73.6875 24.5218 73.6437 24.4571C73.6613 24.4188 73.6747 24.3843 73.684 24.3535C73.6934 24.3227 73.7213 24.3123 73.7677 24.3224C73.7512 24.1808 73.7578 24.0482 73.7874 23.9245C73.8247 23.8012 73.8734 23.6862 73.9334 23.5797C73.9938 23.4653 74.0658 23.3555 74.1492 23.2501C74.2326 23.1447 74.3121 23.0391 74.3877 22.9333C74.4428 22.9282 74.4736 22.9376 74.4802 22.9614C74.4947 22.9855 74.5222 22.983 74.5627 22.9537C74.668 22.8807 74.7423 22.8022 74.7856 22.7183C74.8288 22.6344 74.8531 22.5378 74.8585 22.4286C74.9212 22.2674 74.9957 22.1068 75.0818 21.9468C75.1683 21.779 75.2618 21.6272 75.3624 21.4914C75.463 21.3555 75.5706 21.2357 75.6852 21.1319C75.8076 21.0284 75.9326 20.9524 76.0602 20.904C76.1577 20.8306 76.2782 20.7661 76.4217 20.7106C76.5656 20.6473 76.7203 20.6041 76.8857 20.581C77.0515 20.5501 77.2163 20.5387 77.3802 20.5468C77.5522 20.5474 77.7075 20.5707 77.8461 20.6167C77.8843 20.6342 77.9042 20.6274 77.9057 20.5962C77.9151 20.5654 77.9315 20.5505 77.9549 20.5517ZM77.3368 23.3254C77.5362 23.2492 77.7462 23.193 77.967 23.157C78.196 23.1136 78.3881 23.0253 78.5433 22.8921C78.4539 22.8017 78.321 22.7208 78.1446 22.6495C77.9686 22.5704 77.7756 22.5179 77.5657 22.4919C77.3558 22.4659 77.1403 22.4748 76.9191 22.5186C76.7061 22.555 76.5181 22.6396 76.3551 22.7724C76.3014 22.9105 76.2568 23.0217 76.2213 23.106C76.1862 23.1825 76.1385 23.2779 76.0781 23.3923C76.0918 23.432 76.1137 23.4644 76.1437 23.4894C76.182 23.5069 76.2079 23.5356 76.2216 23.5753C76.4057 23.4906 76.5877 23.4487 76.7675 23.4498C76.9556 23.4434 77.1453 23.4019 77.3368 23.3254ZM86.3257 21.6338C86.3308 21.6888 86.3287 21.7317 86.3194 21.7625C86.3182 21.786 86.3132 21.8092 86.3042 21.8322C86.3031 21.8556 86.3017 21.8829 86.3002 21.9141C86.299 21.9375 86.3049 21.9769 86.3178 22.0323C86.1408 22.2895 85.9406 22.4635 85.7171 22.5541C85.5018 22.6374 85.2682 22.6962 85.0161 22.7307C84.7645 22.7574 84.5049 22.7876 84.2373 22.8213C83.9775 22.8554 83.715 22.9441 83.4498 23.0875C83.3503 23.0435 83.2566 23.0388 83.1689 23.0736C83.0889 23.1088 82.9713 23.1147 82.816 23.0914C82.7669 23.1359 82.7066 23.1681 82.6352 23.1881C82.5642 23.2002 82.493 23.2162 82.4217 23.2362C82.4494 23.3079 82.4574 23.3826 82.4458 23.4603C82.4423 23.5305 82.4511 23.5896 82.4722 23.6376C82.7442 23.6745 83.0448 23.6854 83.3741 23.6704C83.7111 23.6557 84.0398 23.6524 84.3601 23.6604C84.366 23.6998 84.3607 23.7269 84.3444 23.7418C84.3284 23.7488 84.3235 23.7681 84.3298 23.7997C84.3825 23.8414 84.4346 23.8948 84.4861 23.96C84.538 24.0173 84.59 24.0746 84.6419 24.1319C84.6938 24.1892 84.7461 24.2388 84.7988 24.2805C84.8597 24.3148 84.9294 24.3299 85.0078 24.326C85.0359 24.3899 85.0519 24.4611 85.0559 24.5395C85.068 24.6105 85.0566 24.6843 85.0215 24.7608C84.8924 24.8404 84.7631 24.924 84.6337 25.0115C84.5046 25.0912 84.3681 25.1626 84.2242 25.2259C84.088 25.2896 83.9408 25.341 83.7824 25.3801C83.6322 25.4118 83.4637 25.4191 83.2768 25.4021C83.2378 25.4002 83.2066 25.3986 83.1832 25.3975C83.1676 25.3967 83.1447 25.3838 83.1147 25.3589C83.0503 25.3948 82.96 25.4021 82.8437 25.3807C82.7353 25.3597 82.6489 25.3672 82.5845 25.4031C82.5006 25.3598 82.396 25.339 82.2708 25.3407C82.1538 25.3349 82.0492 25.3141 81.9571 25.2782C81.8242 25.4359 81.7023 25.6059 81.5917 25.7882C81.481 25.9705 81.3814 26.165 81.293 26.3718C81.5564 26.4239 81.7741 26.4503 81.9461 26.451C82.126 26.4521 82.2943 26.4486 82.4511 26.4407C82.6084 26.425 82.7693 26.4134 82.9339 26.4059C83.0989 26.3906 83.3061 26.393 83.5554 26.4131C83.7157 26.335 83.9018 26.2894 84.1136 26.2764C84.3336 26.256 84.5349 26.219 84.7175 26.1655C84.7787 26.192 84.8312 26.2376 84.875 26.3023C84.9191 26.3592 84.9593 26.416 84.9956 26.4725C85.0401 26.5217 85.0848 26.5669 85.1297 26.6082C85.1746 26.6495 85.2324 26.668 85.303 26.6637C85.3327 26.6964 85.3502 26.7364 85.3557 26.7836C85.3694 26.8234 85.3792 26.863 85.3851 26.9024C85.3909 26.9418 85.4009 26.9775 85.415 27.0095C85.4372 27.034 85.472 27.0436 85.5192 27.0381C85.3894 27.2898 85.243 27.482 85.08 27.6148C84.9252 27.7401 84.7486 27.8331 84.55 27.8937C84.3515 27.9543 84.1303 27.9981 83.8865 28.0252C83.6505 28.0526 83.3867 28.0865 83.0953 28.1269C83.0243 28.139 82.966 28.1323 82.9203 28.1065C82.8743 28.0886 82.8201 28.0781 82.7576 28.075C82.5762 28.1052 82.3599 28.1297 82.1087 28.1486C81.8575 28.1675 81.6033 28.1667 81.3462 28.1461C81.089 28.1256 80.845 28.0784 80.614 28.0044C80.3826 27.9382 80.1964 27.8273 80.0555 27.6718C79.9958 27.614 79.9559 27.5495 79.936 27.4781C79.9242 27.3993 79.8764 27.3383 79.7925 27.295C79.7897 27.1932 79.7797 27.0793 79.7624 26.9533C79.7452 26.8273 79.7281 26.6974 79.7113 26.5636C79.6948 26.422 79.682 26.2845 79.673 26.151C79.6717 26.018 79.6855 25.8974 79.7143 25.7894C79.7435 25.6735 79.7955 25.5704 79.8704 25.4803C79.953 25.3905 79.9853 25.2904 79.9673 25.18C80.0067 25.1741 80.0311 25.1558 80.0404 25.1249C80.0502 25.0863 80.0822 25.0722 80.1364 25.0827C80.1901 24.9446 80.2474 24.8145 80.3082 24.6923C80.369 24.5702 80.4296 24.4519 80.49 24.3376C80.5582 24.2236 80.6225 24.1094 80.6829 23.9951C80.7515 23.8733 80.8167 23.7397 80.8787 23.5941C80.7745 23.4873 80.6979 23.374 80.6491 23.2542C80.6084 23.1271 80.5793 23.0044 80.5616 22.8862C80.5444 22.7602 80.5311 22.6344 80.5216 22.5088C80.5126 22.3753 80.4918 22.2413 80.4593 22.1068C80.5431 21.9936 80.6414 21.9046 80.7541 21.8397C80.875 21.7675 81.0029 21.7112 81.1379 21.671C81.2729 21.6307 81.4192 21.5988 81.5768 21.5753C81.7344 21.5518 81.9 21.5248 82.0735 21.4942C82.3907 21.4082 82.6715 21.3438 82.9161 21.3012C83.1685 21.2589 83.4125 21.2279 83.6482 21.2083C83.892 21.1812 84.1434 21.1584 84.4024 21.1399C84.6615 21.1214 84.9564 21.089 85.2872 21.0428C85.354 21.1165 85.4186 21.1549 85.481 21.158C85.5157 21.0893 85.5517 21.0715 85.5892 21.1046C85.6349 21.1304 85.6555 21.1079 85.6512 21.0373C85.7227 21.1738 85.8146 21.2918 85.9271 21.3912C86.0477 21.4832 86.1806 21.5641 86.3257 21.6338ZM92.5995 25.0294C92.5871 25.1226 92.5905 25.2127 92.6096 25.2997C92.6288 25.3867 92.6519 25.4739 92.6788 25.5613C92.714 25.6412 92.7451 25.7249 92.772 25.8123C92.799 25.8996 92.8182 25.9866 92.8296 26.0732C92.8398 26.1832 92.8338 26.3042 92.8116 26.4361C92.7899 26.5602 92.7564 26.6837 92.7112 26.8066C92.6664 26.9217 92.6103 27.0284 92.5429 27.1268C92.4758 27.2173 92.3982 27.2839 92.3101 27.3265C92.1939 27.4615 92.0559 27.5642 91.8959 27.6346C91.736 27.7049 91.5871 27.7914 91.449 27.8941C91.3605 27.9445 91.261 27.9787 91.1506 27.9967C91.048 28.0151 90.9415 28.0333 90.8311 28.0513C90.743 28.0939 90.639 28.1396 90.5193 28.1884C90.3999 28.2295 90.2767 28.2703 90.1495 28.311C90.0228 28.3438 89.8964 28.3689 89.7704 28.3861C89.6447 28.3956 89.5353 28.3941 89.4421 28.3816C89.2037 28.4559 88.9708 28.4992 88.7434 28.5114C88.5234 28.5318 88.2666 28.5035 87.9732 28.4264C87.6904 28.4516 87.4296 28.427 87.1907 28.3526C86.9597 28.2786 86.7539 28.1707 86.5732 28.0288C86.4006 27.8795 86.2488 27.7077 86.1175 27.5135C85.9945 27.3119 85.8953 27.1036 85.8199 26.8887C85.7794 26.4408 85.8149 26.0397 85.9262 25.6854C86.038 25.3233 86.1872 24.9943 86.3739 24.6985C86.5688 24.3952 86.7857 24.1204 87.0247 23.8741C87.2641 23.62 87.4953 23.3733 87.7183 23.134C87.7643 23.1519 87.7995 23.1536 87.8236 23.1392C87.856 23.1173 87.8847 23.0914 87.9096 23.0613C87.9349 23.0234 87.9601 22.9895 87.985 22.9594C88.0178 22.9298 88.0539 22.912 88.0933 22.9061C88.1537 22.7918 88.2359 22.7098 88.3401 22.6602C88.4524 22.6031 88.5425 22.5215 88.6103 22.4154C88.6813 22.4032 88.741 22.3827 88.7893 22.3538C88.8377 22.3249 88.8823 22.2919 88.9233 22.2548C88.972 22.2181 89.0206 22.1853 89.0689 22.1564C89.1177 22.1197 89.1736 22.0951 89.2368 22.0826L89.2432 21.9539C89.3867 21.8984 89.4916 21.8331 89.5579 21.7582C89.6324 21.6758 89.7193 21.5784 89.8187 21.466C89.8893 21.4617 89.9442 21.4605 89.9832 21.4624C90.03 21.4647 90.0967 21.4602 90.1833 21.4488C90.2511 21.3427 90.3098 21.2634 90.3593 21.2111C90.4166 21.1592 90.4975 21.1045 90.6021 21.0471C90.6934 21.0985 90.7933 21.1348 90.9018 21.1558C91.018 21.1772 91.117 21.2329 91.1986 21.323C91.2025 21.4014 91.2228 21.465 91.2595 21.5137C91.2966 21.5546 91.3376 21.5958 91.3825 21.6371C91.4278 21.6706 91.469 21.7079 91.5061 21.7488C91.551 21.7901 91.5795 21.8463 91.5916 21.9173C91.6224 21.9266 91.6421 21.9237 91.6507 21.9085C91.6671 21.8936 91.6907 21.8909 91.7215 21.9002C91.7395 22.0106 91.7632 22.0861 91.7925 22.1267C91.8221 22.1594 91.8501 22.2273 91.8763 22.3303C91.8334 22.4064 91.7981 22.4868 91.7705 22.5714C91.751 22.6487 91.7013 22.7049 91.6214 22.7401C91.6109 22.7943 91.6249 22.8263 91.6636 22.836C91.7026 22.8379 91.725 22.8586 91.7309 22.898C91.7352 22.9686 91.721 23.0188 91.6883 23.0484C91.8605 23.362 92.0123 23.6941 92.1436 24.0448C92.2753 24.3876 92.4273 24.7158 92.5995 25.0294ZM91.0815 26.0691C91.117 25.9848 91.1595 25.9165 91.209 25.8642C91.2663 25.8122 91.3016 25.7318 91.3148 25.623C91.2788 25.5586 91.2577 25.5107 91.2515 25.4791C91.2456 25.4397 91.2446 25.3809 91.2484 25.3029C91.0887 25.0525 90.9532 24.7877 90.8418 24.5085C90.7308 24.2214 90.6033 23.953 90.4592 23.7034C90.442 23.7339 90.4132 23.7638 90.3726 23.793C90.3321 23.8223 90.2895 23.8124 90.245 23.7633C90.2263 23.8249 90.1967 23.8704 90.1562 23.8997C90.116 23.9212 90.0725 23.9307 90.0257 23.9284C89.9792 23.9183 89.9291 23.9041 89.8752 23.8858C89.8296 23.8601 89.788 23.8307 89.7505 23.7975C89.5154 23.9658 89.2804 24.1302 89.0457 24.2907C88.8109 24.4512 88.5982 24.6402 88.4076 24.8576C88.3756 24.8716 88.3557 24.8785 88.3479 24.8781C88.3405 24.8699 88.3169 24.8727 88.2771 24.8863C88.2073 25.0315 88.1226 25.1642 88.0228 25.2844C87.9312 25.3972 87.8393 25.5139 87.7473 25.6346C87.6554 25.7552 87.5747 25.8842 87.5053 26.0215C87.436 26.1589 87.3927 26.321 87.3757 26.5079C87.503 26.6237 87.6557 26.6977 87.8341 26.73C88.0124 26.7623 88.1955 26.7752 88.3836 26.7689C88.5794 26.7629 88.7679 26.7487 88.9489 26.7264C89.1381 26.6966 89.3107 26.6856 89.4668 26.6933C89.7983 26.6315 90.0843 26.5439 90.3245 26.4306C90.5651 26.3095 90.8175 26.189 91.0815 26.0691ZM97.6769 21.5255C98.0027 21.5807 98.2921 21.6615 98.5449 21.7678C98.7978 21.8742 99.0101 22.0098 99.1819 22.1747C99.2971 22.376 99.4038 22.5924 99.5018 22.8241C99.6077 23.0562 99.6818 23.2984 99.7241 23.5508C99.7745 23.7958 99.7895 24.0468 99.769 24.3039C99.7563 24.5614 99.6888 24.8202 99.5664 25.0801C99.3263 25.3498 99.0379 25.5663 98.7013 25.7296C98.3729 25.8855 98.0187 26.0088 97.6388 26.0995C97.2589 26.1903 96.8641 26.2646 96.4545 26.3226C96.0527 26.381 95.6587 26.4398 95.2725 26.4989C95.2714 26.6788 95.262 26.8699 95.2442 27.0724C95.2345 27.2675 95.2052 27.4655 95.1562 27.6665C95.1153 27.86 95.0552 28.0487 94.9757 28.2325C94.8962 28.4163 94.7941 28.5833 94.6693 28.7336C94.5367 28.7271 94.3994 28.7359 94.2574 28.7602C94.115 28.7923 93.9886 28.8173 93.8782 28.8353C93.8251 28.8014 93.7759 28.7677 93.7307 28.7342C93.6928 28.7089 93.6351 28.6904 93.5574 28.6787C93.5769 28.6015 93.5612 28.5225 93.5104 28.4417C93.4601 28.3532 93.4097 28.2647 93.3593 28.1761C93.3089 28.0876 93.2739 28.0038 93.2544 27.9246C93.2426 27.8458 93.2853 27.7736 93.3824 27.708C93.3305 27.6506 93.3067 27.5791 93.3109 27.4932C93.3701 27.4023 93.4233 27.2759 93.4704 27.1139C93.5253 26.9524 93.5683 26.7941 93.5995 26.6392C93.6388 26.4769 93.6539 26.329 93.6448 26.1956C93.6358 26.0622 93.5626 25.9608 93.4252 25.8915C93.4338 25.8762 93.4497 25.8692 93.4732 25.8704C93.4966 25.8715 93.5202 25.8688 93.544 25.8621C93.4838 25.8122 93.4481 25.744 93.4367 25.6574C93.4332 25.5711 93.4095 25.4957 93.3658 25.4309C93.3833 25.3927 93.3968 25.3582 93.4061 25.3273C93.4154 25.2965 93.4433 25.2861 93.4898 25.2963C93.4733 25.1546 93.4798 25.022 93.5094 24.8983C93.5468 24.775 93.5955 24.6601 93.6555 24.5535C93.7159 24.4392 93.7878 24.3293 93.8712 24.2239C93.9547 24.1185 94.0342 24.013 94.1098 23.9072C94.1648 23.9021 94.1956 23.9114 94.2023 23.9352C94.2167 23.9594 94.2442 23.9568 94.2848 23.9276C94.3901 23.8545 94.4644 23.7761 94.5076 23.6922C94.5509 23.6083 94.5752 23.5117 94.5806 23.4024C94.6433 23.2413 94.7177 23.0807 94.8038 22.9207C94.8903 22.7529 94.9839 22.601 95.0845 22.4652C95.185 22.3294 95.2926 22.2095 95.4073 22.1057C95.5297 22.0022 95.6547 21.9263 95.7822 21.8778C95.8797 21.8044 96.0002 21.74 96.1438 21.6845C96.2877 21.6212 96.4424 21.578 96.6078 21.5549C96.7736 21.5239 96.9384 21.5125 97.1023 21.5206C97.2743 21.5213 97.4296 21.5446 97.5681 21.5905C97.6064 21.6081 97.6263 21.6012 97.6278 21.57C97.6371 21.5392 97.6535 21.5244 97.6769 21.5255ZM97.0589 24.2992C97.2582 24.223 97.4683 24.1669 97.6891 24.1308C97.9181 24.0874 98.1101 23.9991 98.2653 23.866C98.1759 23.7755 98.0431 23.6946 97.8667 23.6234C97.6907 23.5443 97.4977 23.4917 97.2878 23.4657C97.0779 23.4397 96.8623 23.4486 96.6412 23.4925C96.4282 23.5289 96.2402 23.6134 96.0772 23.7462C96.0234 23.8843 95.9788 23.9956 95.9434 24.0798C95.9083 24.1563 95.8606 24.2518 95.8002 24.3661C95.8139 24.4059 95.8357 24.4383 95.8658 24.4632C95.904 24.4807 95.93 24.5094 95.9437 24.5492C96.1278 24.4644 96.3097 24.4226 96.4896 24.4236C96.6776 24.4173 96.8674 24.3758 97.0589 24.2992ZM102.288 28.8986C102.066 28.958 101.824 29.0165 101.563 29.074C101.302 29.1315 101.043 29.1539 100.786 29.1412C100.395 29.122 100.092 29.0092 99.8754 28.803C99.8406 28.7152 99.8084 28.6549 99.7787 28.6222C99.7568 28.5898 99.735 28.5574 99.7131 28.5251C99.6994 28.4853 99.6902 28.434 99.6855 28.3712C99.5973 28.2573 99.5293 28.1288 99.4816 27.9857C99.4343 27.8347 99.4026 27.6845 99.3865 27.5351C99.3786 27.3783 99.3824 27.222 99.3979 27.0664C99.4213 26.9111 99.4559 26.7642 99.5018 26.6256C99.519 26.5952 99.5283 26.5644 99.5299 26.5331C99.5392 26.5023 99.5488 26.4676 99.5585 26.429C99.5959 26.3057 99.633 26.1863 99.67 26.0707C99.7148 25.9556 99.7706 25.8567 99.8372 25.7739C99.8095 25.7022 99.8133 25.6241 99.8488 25.5399C99.8842 25.4556 99.9232 25.3793 99.9657 25.311C100.09 25.0198 100.192 24.7746 100.272 24.5752C100.36 24.3683 100.449 24.1654 100.537 23.9664C100.687 23.6218 100.829 23.2807 100.963 22.9432C101.097 22.6056 101.22 22.2402 101.333 21.8469C101.398 21.8109 101.446 21.7859 101.478 21.7719C101.526 21.7586 101.565 21.7488 101.597 21.7425C101.734 21.8197 101.894 21.898 102.078 21.9775C102.262 22.0492 102.417 22.0881 102.542 22.0942C102.602 22.1363 102.639 22.1695 102.654 22.1937C102.669 22.21 102.684 22.2264 102.698 22.2428C102.779 22.3485 102.848 22.4575 102.905 22.5698C102.963 22.6743 102.975 22.8118 102.944 22.9823C102.893 23.0503 102.856 23.0836 102.833 23.0825C102.786 23.2366 102.737 23.3671 102.685 23.4741C102.64 23.5814 102.592 23.6885 102.54 23.7954C102.479 23.9098 102.423 24.0243 102.37 24.1391C102.318 24.2538 102.271 24.3962 102.232 24.5664C102.199 24.6038 102.173 24.6378 102.156 24.6682C102.147 24.699 102.134 24.7336 102.116 24.7718C102.098 24.8101 102.077 24.852 102.051 24.8977C102.034 24.9359 102.005 24.9697 101.964 24.999C101.931 25.2007 101.883 25.3626 101.823 25.4848C101.77 25.6073 101.713 25.7297 101.652 25.8518C101.547 26.0735 101.45 26.2955 101.361 26.518C101.28 26.7408 101.224 26.9962 101.194 27.2841C101.234 27.2704 101.269 27.2644 101.301 27.2659C101.34 27.2678 101.375 27.2696 101.406 27.2711C101.476 27.2746 101.557 27.2903 101.65 27.3184C101.89 27.2051 102.147 27.1435 102.422 27.1335C102.704 27.124 102.982 27.1221 103.255 27.1277C103.364 27.1331 103.474 27.1385 103.583 27.1439C103.692 27.1493 103.794 27.1465 103.888 27.1355C103.957 27.178 103.998 27.2036 104.014 27.2121C104.037 27.2133 104.068 27.2148 104.107 27.2168C104.162 27.2195 104.208 27.2257 104.247 27.2354C104.336 27.3259 104.423 27.3927 104.507 27.436C104.591 27.4792 104.679 27.5188 104.771 27.5546C104.855 27.59 104.936 27.6292 105.012 27.6721C105.096 27.7075 105.176 27.7584 105.25 27.8247L105.308 28.332C105.359 28.4049 105.38 28.4529 105.371 28.4759C105.368 28.5383 105.35 28.5844 105.317 28.6141L105.334 28.744C105.216 28.7616 105.133 28.7849 105.084 28.8138C105.044 28.8431 105.003 28.8762 104.962 28.9133C104.899 28.918 104.852 28.9196 104.821 28.9181C104.798 28.9169 104.774 28.9158 104.751 28.9146C104.642 28.9092 104.508 28.9222 104.35 28.9535C104.143 28.8729 103.926 28.827 103.7 28.8158C103.614 28.8116 103.524 28.811 103.43 28.8142C103.336 28.8174 103.242 28.8206 103.148 28.8237C103.053 28.8347 102.955 28.8416 102.854 28.8444C102.759 28.8476 102.662 28.8467 102.56 28.8417L102.288 28.8986ZM112.438 22.9232C112.444 22.9782 112.441 23.0211 112.432 23.0519C112.431 23.0754 112.426 23.0986 112.417 23.1216C112.416 23.145 112.414 23.1723 112.413 23.2035C112.412 23.2269 112.418 23.2663 112.431 23.3217C112.254 23.5789 112.053 23.7529 111.83 23.8435C111.615 23.9268 111.381 23.9856 111.129 24.0201C110.877 24.0468 110.618 24.077 110.35 24.1107C110.09 24.1448 109.828 24.2335 109.562 24.3769C109.463 24.3329 109.369 24.3282 109.282 24.363C109.202 24.3982 109.084 24.4041 108.929 24.3808C108.88 24.4253 108.819 24.4575 108.748 24.4775C108.677 24.4896 108.606 24.5056 108.534 24.5256C108.562 24.5973 108.57 24.672 108.559 24.7497C108.555 24.8199 108.564 24.879 108.585 24.927C108.857 24.9639 109.158 24.9748 109.487 24.9598C109.824 24.9451 110.153 24.9418 110.473 24.9498C110.479 24.9892 110.473 25.0163 110.457 25.0312C110.441 25.0382 110.436 25.0575 110.442 25.0891C110.495 25.1308 110.547 25.1842 110.599 25.2494C110.651 25.3067 110.703 25.364 110.755 25.4213C110.807 25.4786 110.859 25.5282 110.912 25.5699C110.972 25.6042 111.042 25.6193 111.12 25.6154C111.149 25.6793 111.165 25.7505 111.169 25.8289C111.181 25.8999 111.169 25.9737 111.134 26.0502C111.005 26.1298 110.876 26.2134 110.746 26.3009C110.617 26.3806 110.481 26.452 110.337 26.5153C110.201 26.579 110.054 26.6304 109.895 26.6695C109.745 26.7012 109.576 26.7085 109.39 26.6915C109.351 26.6896 109.319 26.688 109.296 26.6869C109.28 26.6861 109.257 26.6732 109.227 26.6483C109.163 26.6842 109.073 26.6915 108.956 26.6701C108.848 26.6491 108.762 26.6566 108.697 26.6925C108.613 26.6492 108.509 26.6284 108.384 26.6301C108.266 26.6243 108.162 26.6035 108.07 26.5676C107.937 26.7253 107.815 26.8953 107.704 27.0776C107.594 27.2599 107.494 27.4544 107.406 27.6612C107.669 27.7133 107.887 27.7397 108.059 27.7404C108.239 27.7415 108.407 27.738 108.564 27.7301C108.721 27.7144 108.882 27.7028 109.047 27.6953C109.212 27.68 109.419 27.6824 109.668 27.7025C109.828 27.6244 110.014 27.5788 110.226 27.5658C110.446 27.5454 110.648 27.5084 110.83 27.4549C110.891 27.4814 110.944 27.527 110.988 27.5917C111.032 27.6486 111.072 27.7054 111.108 27.7619C111.153 27.8111 111.198 27.8563 111.242 27.8976C111.287 27.9389 111.345 27.9574 111.416 27.9531C111.445 27.9858 111.463 28.0258 111.468 28.073C111.482 28.1128 111.492 28.1524 111.498 28.1918C111.504 28.2312 111.514 28.2669 111.528 28.2989C111.55 28.3234 111.585 28.333 111.632 28.3275C111.502 28.5792 111.356 28.7714 111.193 28.9042C111.038 29.0295 110.861 29.1225 110.663 29.1831C110.464 29.2437 110.243 29.2875 109.999 29.3146C109.763 29.342 109.499 29.3759 109.208 29.4163C109.137 29.4284 109.079 29.4217 109.033 29.3959C108.987 29.378 108.933 29.3675 108.87 29.3644C108.689 29.3946 108.473 29.4191 108.221 29.438C107.97 29.4569 107.716 29.4561 107.459 29.4355C107.202 29.415 106.958 29.3678 106.727 29.2938C106.495 29.2276 106.309 29.1167 106.168 28.9612C106.108 28.9034 106.069 28.8389 106.049 28.7675C106.037 28.6887 105.989 28.6277 105.905 28.5844C105.902 28.4826 105.892 28.3687 105.875 28.2427C105.858 28.1167 105.841 27.9868 105.824 27.853C105.808 27.7114 105.795 27.5739 105.786 27.4404C105.784 27.3074 105.798 27.1868 105.827 27.0788C105.856 26.9629 105.908 26.8598 105.983 26.7697C106.066 26.6799 106.098 26.5798 106.08 26.4694C106.119 26.4635 106.144 26.4452 106.153 26.4143C106.163 26.3757 106.195 26.3616 106.249 26.3721C106.303 26.234 106.36 26.1039 106.421 25.9817C106.482 25.8596 106.542 25.7413 106.603 25.627C106.671 25.513 106.735 25.3988 106.796 25.2845C106.864 25.1627 106.929 25.0291 106.991 24.8835C106.887 24.7767 106.811 24.6634 106.762 24.5436C106.721 24.4165 106.692 24.2938 106.674 24.1756C106.657 24.0496 106.644 23.9238 106.634 23.7982C106.625 23.6647 106.605 23.5307 106.572 23.3962C106.656 23.283 106.754 23.194 106.867 23.1291C106.988 23.0569 107.116 23.0006 107.251 22.9604C107.386 22.9201 107.532 22.8882 107.689 22.8647C107.847 22.8412 108.013 22.8142 108.186 22.7836C108.503 22.6976 108.784 22.6333 109.029 22.5906C109.281 22.5483 109.525 22.5173 109.761 22.4977C110.005 22.4706 110.256 22.4478 110.515 22.4293C110.774 22.4108 111.069 22.3784 111.4 22.3322C111.467 22.4059 111.531 22.4443 111.594 22.4474C111.628 22.3787 111.664 22.3609 111.702 22.394C111.748 22.4198 111.768 22.3973 111.764 22.3267C111.835 22.4632 111.927 22.5812 112.04 22.6806C112.16 22.7726 112.293 22.8535 112.438 22.9232Z" fill="#D5D5D8"/>
<g clip-path="url(#clip0_379_6738)">
<path fill-rule="evenodd" clip-rule="evenodd" d="M25.9199 32.5395C29.6415 40.0169 36.242 45.4277 44.0197 49.1557C55.7657 54.7854 70.1983 56.5805 81.5936 55.7961C88.7556 55.3039 93.4362 52.5767 100.29 50.5603C100.568 50.4787 100.859 50.6374 100.94 50.9151C101.022 51.1914 100.863 51.4838 100.586 51.5641C93.6519 53.6042 88.9108 56.3425 81.6651 56.8411C70.111 57.6363 55.4781 55.808 43.5671 50.0999C35.5748 46.2692 28.8073 40.6906 24.9823 33.0063C24.8534 32.7475 24.958 32.4336 25.2168 32.3046C25.4757 32.1757 25.7909 32.2806 25.9199 32.5395Z" fill="#D5D5D8"/>
<path fill-rule="evenodd" clip-rule="evenodd" d="M102.155 51.4047C102.131 51.4133 101.969 51.4669 101.838 51.5262C101.294 51.769 100.382 52.2808 99.2687 52.9946C95.5376 55.3936 89.5674 60.0649 87.8337 64.769C87.7336 65.0403 87.4326 65.1785 87.1613 65.0784C86.8899 64.9784 86.7501 64.6783 86.8502 64.4069C88.654 59.5124 94.8205 54.6093 98.7032 52.1141C99.2235 51.7803 99.7027 51.4875 100.125 51.2449C98.6405 51.1536 97.157 51.1007 95.6691 51.0645C91.3856 50.9617 87.7013 49.9854 83.8379 48.0598C83.5795 47.9318 83.474 47.6163 83.6033 47.3582C83.7313 47.0999 84.0468 46.9943 84.3048 47.1236C88.0237 48.9763 91.5707 49.9185 95.6937 50.018C97.6381 50.0658 99.5776 50.1423 101.517 50.2912C101.71 50.306 102.211 50.35 102.28 50.3672C102.675 50.4649 102.687 50.8099 102.685 50.8861C102.685 50.923 102.654 51.3798 102.155 51.4047ZM102.065 50.3617C102.079 50.3612 102.093 50.3596 102.108 50.3595C102.096 50.359 102.082 50.3607 102.065 50.3617Z" fill="#D5D5D8"/>
</g>
<defs>
<clipPath id="clip0_379_6738">
<rect width="80" height="80" fill="white" transform="matrix(-0.258819 0.965926 0.965926 0.258819 33.6904 0)"/>
</clipPath>
</defs>
</svg>
