<svg width="110" height="110" viewBox="0 0 110 110" fill="none" xmlns="http://www.w3.org/2000/svg">
<g clip-path="url(#clip0_377_6715)">
<path fill-rule="evenodd" clip-rule="evenodd" d="M17.4616 40.8203C25.3756 38.1499 33.8704 38.9754 42.0115 41.8239C54.306 46.1259 65.7972 55.0406 73.3162 63.6391C78.0424 69.0426 79.4335 74.2782 82.8656 80.544C83.0047 80.7976 83.323 80.8907 83.5767 80.7516C83.8297 80.6137 83.9234 80.2942 83.7837 80.0417C80.3115 73.7026 78.8855 68.4164 74.1044 62.9493C66.4805 54.2311 54.8239 45.1985 42.3572 40.8355C33.9916 37.9083 25.26 37.0838 17.1269 39.8279C16.8528 39.9203 16.7054 40.2165 16.7978 40.4905C16.8901 40.7646 17.1875 40.9127 17.4616 40.8203Z" fill="#D5D5D8"/>
<path fill-rule="evenodd" clip-rule="evenodd" d="M84.7831 81.2624C84.772 81.2393 84.6951 81.0869 84.6443 80.9526C84.4304 80.3968 84.1451 79.3901 83.8604 78.0988C82.9104 73.7659 81.9779 66.2429 84.0699 61.6869C84.1905 61.424 84.0748 61.1137 83.8119 60.9931C83.5491 60.8724 83.2382 60.9864 83.1176 61.2492C80.941 65.9897 81.8488 73.8154 82.8383 78.3234C82.9713 78.9271 83.1041 79.4728 83.2318 79.9424C82.116 78.9596 81.0278 77.95 79.9481 76.9255C76.841 73.9751 73.542 72.0664 69.446 70.7037C69.1726 70.6121 68.8751 70.7611 68.7846 71.0351C68.6929 71.3085 68.8419 71.606 69.116 71.6965C73.0581 73.0088 76.2359 74.8448 79.2269 77.6843C80.6381 79.0228 82.066 80.3374 83.5449 81.6006C83.692 81.7263 84.0781 82.0488 84.1393 82.0855C84.4881 82.2952 84.7397 82.0589 84.7927 82.0039C84.8184 81.9776 85.1191 81.6323 84.7831 81.2624ZM83.9833 81.9379C83.9928 81.948 84.0016 81.9591 84.0122 81.9698C84.0033 81.9616 83.9944 81.9504 83.9833 81.9379Z" fill="#D5D5D8"/>
</g>
<defs>
<clipPath id="clip0_377_6715">
<rect width="80" height="80" fill="white" transform="translate(0 69.3561) rotate(-60.1063)"/>
</clipPath>
</defs>
</svg>
